<?xml version="1.0" encoding="UTF-8" standalone="no"?>
<!DOCTYPE svg PUBLIC "-//W3C//DTD SVG 1.1//EN"
 "http://www.w3.org/Graphics/SVG/1.1/DTD/svg11.dtd">
<!-- Generated by graphviz version 15.0.0 (20260523.1842)
 -->
<!-- Title: trace_CLB_Naive_SL2&#45;AS0&#45;CL0&#45;A1&#45;C1&#45;NB_exec_modeA&#45;Register_Human&#45;Register_Agent&#45;Authorize_ModeA_naive&#45;Authorize_ModeA_naive&#45;Authorize_ModeA_naive Pages: 1 -->
<svg width="644pt" height="503pt"
 viewBox="0.00 0.00 644.00 503.00" xmlns="http://www.w3.org/2000/svg" xmlns:xlink="http://www.w3.org/1999/xlink">
<g id="graph0" class="graph" transform="scale(1 1) rotate(0) translate(4 499.12)">
<title>trace_CLB_Naive_SL2&#45;AS0&#45;CL0&#45;A1&#45;C1&#45;NB_exec_modeA&#45;Register_Human&#45;Register_Agent&#45;Authorize_ModeA_naive&#45;Authorize_ModeA_naive&#45;Authorize_ModeA_naive</title>
<polygon fill="white" stroke="none" points="-4,4 -4,-499.12 639.6,-499.12 639.6,4 -4,4"/>
<!-- n5 -->
<g id="node1" class="node">
<title>n5</title>
<polygon fill="#d5d897" stroke="black" points="159.68,-55.5 159.68,-116.5 574.68,-116.5 574.68,-55.5 159.68,-55.5"/>
<text xml:space="preserve" text-anchor="start" x="167.68" y="-104.9" font-family="Helvetica,sans-Serif" font-size="8.00">In( &lt;SI1, ~mandate, $agentId, $asset, </text>
<text xml:space="preserve" text-anchor="start" x="167.68" y="-95.9" font-family="Helvetica,sans-Serif" font-size="8.00">     $payee, $value&gt;</text>
<text xml:space="preserve" text-anchor="start" x="167.68" y="-86.9" font-family="Helvetica,sans-Serif" font-size="8.00">)</text>
<polyline fill="none" stroke="black" points="312.93,-81.5 312.93,-116.5"/>
<text xml:space="preserve" text-anchor="start" x="320.93" y="-104.9" font-family="Helvetica,sans-Serif" font-size="8.00">!HumanPk( $H,</text>
<text xml:space="preserve" text-anchor="start" x="320.93" y="-95.9" font-family="Helvetica,sans-Serif" font-size="8.00">          pk(~hsk)</text>
<text xml:space="preserve" text-anchor="start" x="320.93" y="-86.9" font-family="Helvetica,sans-Serif" font-size="8.00">)</text>
<polyline fill="none" stroke="black" points="384.43,-81.5 384.43,-116.5"/>
<text xml:space="preserve" text-anchor="start" x="392.43" y="-104.9" font-family="Helvetica,sans-Serif" font-size="8.00">!AgentKey( $agentId,</text>
<text xml:space="preserve" text-anchor="start" x="392.43" y="-95.9" font-family="Helvetica,sans-Serif" font-size="8.00">           ~sk</text>
<text xml:space="preserve" text-anchor="start" x="392.43" y="-86.9" font-family="Helvetica,sans-Serif" font-size="8.00">)</text>
<polyline fill="none" stroke="black" points="476.18,-81.5 476.18,-116.5"/>
<text xml:space="preserve" text-anchor="middle" x="525.43" y="-95.9" font-family="Helvetica,sans-Serif" font-size="8.00">NonceUnused( h(H1) )</text>
<polyline fill="none" stroke="black" points="159.68,-81.5 574.68,-81.5"/>
<text xml:space="preserve" text-anchor="start" x="167.68" y="-69.9" font-family="Helvetica,sans-Serif" font-size="8.00">#s : Settle_ModeA_naive[Eq( true, true ),</text>
<text xml:space="preserve" text-anchor="start" x="167.68" y="-60.9" font-family="Helvetica,sans-Serif" font-size="8.00">                        Settled( $H, $agentId, pk(~sk), $payee, $asset, $value, $settleChain )]</text>
</g>
<!-- n28 -->
<g id="node10" class="node">
<title>n28</title>
<text xml:space="preserve" text-anchor="start" x="265.06" y="-21.25" font-family="Helvetica,sans-Serif" font-size="8.00" fill="#000000">H1</text>
<text xml:space="preserve" text-anchor="start" x="282.06" y="-21.25" font-family="Helvetica,sans-Serif" font-size="8.00">=</text>
<text xml:space="preserve" text-anchor="start" x="291.56" y="-21.25" font-family="Helvetica,sans-Serif" font-size="8.00">h(&lt;$agentId, ~mandate, $asset, $payee, $value&gt;)</text>
<text xml:space="preserve" text-anchor="start" x="265.06" y="-7.25" font-family="Helvetica,sans-Serif" font-size="8.00" fill="#000000">SI1</text>
<text xml:space="preserve" text-anchor="start" x="282.06" y="-7.25" font-family="Helvetica,sans-Serif" font-size="8.00">=</text>
<text xml:space="preserve" text-anchor="start" x="291.56" y="-7.25" font-family="Helvetica,sans-Serif" font-size="8.00">sign(H1, ~hsk)</text>
<polygon fill="none" stroke="black" points="260.06,0 260.06,-33 474.31,-33 474.31,0 260.06,0"/>
</g>
<!-- n5&#45;&gt;n28 -->
<!-- n6 -->
<g id="node2" class="node">
<title>n6</title>
<ellipse fill="none" stroke="black" cx="237.18" cy="-165" rx="36.77" ry="12.02"/>
<text xml:space="preserve" text-anchor="middle" x="237.18" y="-161.9" font-family="Helvetica,sans-Serif" font-size="8.00">#vf : isend</text>
</g>
<!-- n6&#45;&gt;n5 -->
<g id="edge1" class="edge">
<title>n6&#45;&gt;n5:n0</title>
<path fill="none" stroke="#4d4d4d" d="M236.85,-152.8C236.68,-146.17 236.48,-137.37 236.38,-128.51"/>
<polygon fill="#4d4d4d" stroke="#4d4d4d" points="239.88,-128.49 236.32,-118.51 232.88,-128.54 239.88,-128.49"/>
</g>
<!-- n7 -->
<g id="node3" class="node">
<title>n7</title>
<ellipse fill="none" stroke="black" cx="70.18" cy="-225.02" rx="70.18" ry="12.02"/>
<text xml:space="preserve" text-anchor="middle" x="70.18" y="-221.92" font-family="Helvetica,sans-Serif" font-size="8.00">#vk : coerce[!KU( SI1 )]</text>
</g>
<!-- n7&#45;&gt;n6 -->
<g id="edge10" class="edge">
<title>n7&#45;&gt;n6</title>
<path fill="none" stroke="red" stroke-dasharray="5,2" d="M99.65,-213.78C128.34,-203.81 171.94,-188.67 202.33,-178.11"/>
<polygon fill="red" stroke="red" points="203.15,-181.53 211.45,-174.94 200.86,-174.92 203.15,-181.53"/>
</g>
<!-- n8 -->
<g id="node4" class="node">
<title>n8</title>
<ellipse fill="none" stroke="black" cx="282.18" cy="-317.1" rx="34.65" ry="12.02"/>
<text xml:space="preserve" text-anchor="middle" x="282.18" y="-314" font-family="Helvetica,sans-Serif" font-size="8.00">#vl : irecv</text>
</g>
<!-- n8&#45;&gt;n6 -->
<g id="edge11" class="edge">
<title>n8&#45;&gt;n6</title>
<path fill="none" stroke="red" stroke-dasharray="5,2" d="M306.2,-308.17C350.18,-292.4 436.21,-254.97 403.18,-213 377.45,-180.3 352.18,-202.48 312.18,-191 298.81,-187.16 284.28,-182.45 271.6,-178.15"/>
<polygon fill="red" stroke="red" points="273.03,-174.94 262.43,-175 270.75,-181.56 273.03,-174.94"/>
</g>
<!-- n8&#45;&gt;n7 -->
<g id="edge2" class="edge">
<title>n8&#45;&gt;n7</title>
<path fill="none" stroke="#ee4000" d="M261.08,-307.14C224.7,-291.68 149.82,-259.86 105.42,-240.99"/>
<polygon fill="#ee4000" stroke="#ee4000" points="107.06,-237.89 96.49,-237.2 104.32,-244.33 107.06,-237.89"/>
</g>
<!-- n27 -->
<g id="node9" class="node">
<title>n27</title>
<ellipse fill="none" stroke="black" cx="282.18" cy="-271.06" rx="50.03" ry="12.02"/>
<text xml:space="preserve" text-anchor="middle" x="282.18" y="-267.96" font-family="Helvetica,sans-Serif" font-size="8.00">#vr.4 : d_0_snd</text>
</g>
<!-- n8&#45;&gt;n27 -->
<g id="edge3" class="edge">
<title>n8&#45;&gt;n27</title>
<path fill="none" stroke="#ee4000" d="M282.18,-304.99C282.18,-301.78 282.18,-298.16 282.18,-294.52"/>
<polygon fill="#ee4000" stroke="#ee4000" points="285.68,-294.84 282.18,-284.84 278.68,-294.84 285.68,-294.84"/>
</g>
<!-- n14 -->
<g id="node5" class="node">
<title>n14</title>
<polygon fill="#bfda99" stroke="black" points="292.56,-443.62 292.56,-494.62 567.81,-494.62 567.81,-443.62 292.56,-443.62"/>
<text xml:space="preserve" text-anchor="middle" x="430.18" y="-483.02" font-family="Helvetica,sans-Serif" font-size="8.00">Fr( ~hsk )</text>
<polyline fill="none" stroke="black" points="292.56,-477.62 567.81,-477.62"/>
<text xml:space="preserve" text-anchor="middle" x="429.93" y="-466.02" font-family="Helvetica,sans-Serif" font-size="8.00">#vr : Register_Human</text>
<polyline fill="none" stroke="black" points="292.56,-460.62 567.81,-460.62"/>
<text xml:space="preserve" text-anchor="middle" x="340.31" y="-449.02" font-family="Helvetica,sans-Serif" font-size="8.00">!HumanSk( $H, ~hsk )</text>
<polyline fill="none" stroke="black" points="388.06,-443.62 388.06,-460.62"/>
<text xml:space="preserve" text-anchor="middle" x="442.93" y="-449.02" font-family="Helvetica,sans-Serif" font-size="8.00">!HumanPk( $H, pk(~hsk) )</text>
<polyline fill="none" stroke="black" points="497.81,-443.62 497.81,-460.62"/>
<text xml:space="preserve" text-anchor="middle" x="532.81" y="-449.02" font-family="Helvetica,sans-Serif" font-size="8.00">Out( pk(~hsk) )</text>
</g>
<!-- n14&#45;&gt;n5 -->
<g id="edge5" class="edge">
<title>n14:n12&#45;&gt;n5:n1</title>
<path fill="none" stroke="#7f7f7f" stroke-width="2" d="M442.93,-443.12C442.93,-414.62 486.84,-444.49 503.18,-421.12 521.01,-395.63 511.17,-381.19 503.18,-351.12 485.02,-282.78 479.44,-257.13 424.18,-213 398.03,-192.12 372.72,-217.42 352.18,-191 334.42,-168.15 345.18,-153.74 348.04,-128.23"/>
<polygon fill="#7f7f7f" stroke="#7f7f7f" stroke-width="2" points="351.43,-130.21 348.51,-120.02 344.44,-129.81 351.43,-130.21"/>
</g>
<!-- n26 -->
<g id="node8" class="node">
<title>n26</title>
<polygon fill="#a9dc9a" stroke="black" points="170.43,-351.62 170.43,-420.62 491.93,-420.62 491.93,-351.62 170.43,-351.62"/>
<text xml:space="preserve" text-anchor="middle" x="256.68" y="-409.02" font-family="Helvetica,sans-Serif" font-size="8.00">!HumanSk( $H, ~hsk )</text>
<polyline fill="none" stroke="black" points="342.93,-403.62 342.93,-420.62"/>
<text xml:space="preserve" text-anchor="middle" x="417.31" y="-409.02" font-family="Helvetica,sans-Serif" font-size="8.00">Fr( ~mandate )</text>
<polyline fill="none" stroke="black" points="170.43,-403.62 491.93,-403.62"/>
<text xml:space="preserve" text-anchor="start" x="178.43" y="-392.02" font-family="Helvetica,sans-Serif" font-size="8.00">#vr.2 : Authorize_ModeA_naive[Authorized( $H, $agentId, $payee, $asset, $value,</text>
<text xml:space="preserve" text-anchor="start" x="178.43" y="-383.02" font-family="Helvetica,sans-Serif" font-size="8.00">                                          $intendedChain</text>
<text xml:space="preserve" text-anchor="start" x="178.43" y="-374.02" font-family="Helvetica,sans-Serif" font-size="8.00">                              )]</text>
<polyline fill="none" stroke="black" points="170.43,-368.62 491.93,-368.62"/>
<text xml:space="preserve" text-anchor="middle" x="281.93" y="-357.02" font-family="Helvetica,sans-Serif" font-size="8.00">Out( &lt;SI1, ~mandate, $agentId, $asset, $payee, $value&gt; )</text>
<polyline fill="none" stroke="black" points="393.43,-351.62 393.43,-368.62"/>
<text xml:space="preserve" text-anchor="middle" x="442.68" y="-357.02" font-family="Helvetica,sans-Serif" font-size="8.00">NonceUnused( h(H1) )</text>
</g>
<!-- n14&#45;&gt;n26 -->
<g id="edge4" class="edge">
<title>n14:n11&#45;&gt;n26:n21</title>
<path fill="none" stroke="#7f7f7f" stroke-width="2" d="M340.31,-443.12C340.31,-409.5 276.28,-447.3 260.27,-431.53"/>
<polygon fill="#7f7f7f" stroke="#7f7f7f" stroke-width="2" points="264.24,-432.3 257.67,-423.99 257.63,-434.58 264.24,-432.3"/>
</g>
<!-- n15 -->
<g id="node6" class="node">
<title>n15</title>
<ellipse fill="none" stroke="black" cx="300.18" cy="-225.02" rx="91.92" ry="12.02"/>
<text xml:space="preserve" text-anchor="middle" x="300.18" y="-221.92" font-family="Helvetica,sans-Serif" font-size="8.00">#vk.1 : coerce[!KU( ~mandate )]</text>
</g>
<!-- n15&#45;&gt;n6 -->
<g id="edge12" class="edge">
<title>n15&#45;&gt;n6</title>
<path fill="none" stroke="red" stroke-dasharray="5,2" d="M288.03,-212.83C279.29,-204.79 267.31,-193.75 257.17,-184.41"/>
<polygon fill="red" stroke="red" points="259.7,-181.99 249.98,-177.79 254.96,-187.13 259.7,-181.99"/>
</g>
<!-- n20 -->
<g id="node7" class="node">
<title>n20</title>
<polygon fill="#b4db99" stroke="black" points="362.93,-139.5 362.93,-190.5 587.43,-190.5 587.43,-139.5 362.93,-139.5"/>
<text xml:space="preserve" text-anchor="middle" x="474.81" y="-178.9" font-family="Helvetica,sans-Serif" font-size="8.00">Fr( ~sk )</text>
<polyline fill="none" stroke="black" points="362.93,-173.5 587.43,-173.5"/>
<text xml:space="preserve" text-anchor="middle" x="475.18" y="-161.9" font-family="Helvetica,sans-Serif" font-size="8.00">#vr.1 : Register_Agent[KeyAuthorized( $agentId, pk(~sk) )]</text>
<polyline fill="none" stroke="black" points="362.93,-156.5 587.43,-156.5"/>
<text xml:space="preserve" text-anchor="middle" x="430.06" y="-144.9" font-family="Helvetica,sans-Serif" font-size="8.00">!AgentKey( $agentId, ~sk )</text>
<polyline fill="none" stroke="black" points="497.18,-139.5 497.18,-156.5"/>
<text xml:space="preserve" text-anchor="middle" x="541.93" y="-144.9" font-family="Helvetica,sans-Serif" font-size="8.00">Out( pk(~sk) )</text>
</g>
<!-- n20&#45;&gt;n5 -->
<g id="edge6" class="edge">
<title>n20:n18&#45;&gt;n5:n2</title>
<path fill="none" stroke="#7f7f7f" stroke-width="2" d="M361.93,-148C357.91,-148 360.39,-142.12 362.93,-139 379.55,-118.57 415.46,-138.94 426.8,-127.77"/>
<polygon fill="#7f7f7f" stroke="#7f7f7f" stroke-width="2" points="429.6,-130.47 429.37,-119.88 422.95,-128.3 429.6,-130.47"/>
</g>
<!-- n26&#45;&gt;n5 -->
<g id="edge8" class="edge">
<title>n26:n25&#45;&gt;n5:n3</title>
<path fill="none" stroke="black" stroke-width="2" d="M492.93,-360.12C610.63,-360.12 691.89,-116.05 587.14,-99.84"/>
<polygon fill="black" stroke="black" stroke-width="2" points="588.93,-96.47 578.7,-99.22 588.41,-103.45 588.93,-96.47"/>
</g>
<!-- n26&#45;&gt;n8 -->
<g id="edge7" class="edge">
<title>n26:n24&#45;&gt;n8</title>
<path fill="none" stroke="#4d4d4d" d="M281.93,-351.12C281.93,-347.74 281.94,-344.16 281.96,-340.65"/>
<polygon fill="#4d4d4d" stroke="#4d4d4d" points="285.46,-340.95 282.04,-330.93 278.46,-340.9 285.46,-340.95"/>
</g>
<!-- n27&#45;&gt;n6 -->
<g id="edge13" class="edge">
<title>n27&#45;&gt;n6</title>
<path fill="none" stroke="red" stroke-dasharray="5,2" d="M240.37,-264.12C224.09,-259.53 207.02,-251.41 197.18,-237.04 185.31,-219.7 200.67,-198.57 215.66,-183.88"/>
<polygon fill="red" stroke="red" points="217.65,-186.81 222.66,-177.48 212.93,-181.65 217.65,-186.81"/>
</g>
<!-- n27&#45;&gt;n15 -->
<g id="edge9" class="edge">
<title>n27&#45;&gt;n15</title>
<path fill="none" stroke="#ee4000" d="M286.72,-258.95C288.12,-255.53 289.71,-251.65 291.29,-247.77"/>
<polygon fill="#ee4000" stroke="#ee4000" points="294.46,-249.27 295,-238.69 287.98,-246.62 294.46,-249.27"/>
</g>
</g>
</svg>
