<?xml version="1.0" encoding="UTF-8" standalone="no"?>
<!DOCTYPE svg PUBLIC "-//W3C//DTD SVG 1.1//EN"
 "http://www.w3.org/Graphics/SVG/1.1/DTD/svg11.dtd">
<!-- Generated by graphviz version 15.0.0 (20260523.1842)
 -->
<!-- Title: trace_CLB_Naive_ModeB_SL2&#45;AS0&#45;CL0&#45;A1&#45;C1&#45;NB_exec_modeB&#45;Authorize_ModeB&#45;Register_Agent&#45;Authorize_ModeB&#45;Authorize_ModeB&#45;Authorize_ModeB Pages: 1 -->
<svg width="1228pt" height="448pt"
 viewBox="0.00 0.00 1228.00 448.00" xmlns="http://www.w3.org/2000/svg" xmlns:xlink="http://www.w3.org/1999/xlink">
<g id="graph0" class="graph" transform="scale(1 1) rotate(0) translate(4 444.08)">
<title>trace_CLB_Naive_ModeB_SL2&#45;AS0&#45;CL0&#45;A1&#45;C1&#45;NB_exec_modeB&#45;Authorize_ModeB&#45;Register_Agent&#45;Authorize_ModeB&#45;Authorize_ModeB&#45;Authorize_ModeB</title>
<polygon fill="white" stroke="none" points="-4,4 -4,-444.08 1224.29,-444.08 1224.29,4 -4,4"/>
<!-- n5 -->
<g id="node1" class="node">
<title>n5</title>
<polygon fill="#d5d897" stroke="black" points="772.56,-55.5 772.56,-116.5 1169.56,-116.5 1169.56,-55.5 772.56,-55.5"/>
<text xml:space="preserve" text-anchor="start" x="780.56" y="-104.9" font-family="Helvetica,sans-Serif" font-size="8.00">In( &lt;~p, SI1, $agentId, payee, asset, </text>
<text xml:space="preserve" text-anchor="start" x="780.56" y="-95.9" font-family="Helvetica,sans-Serif" font-size="8.00">     val, cid&gt;</text>
<text xml:space="preserve" text-anchor="start" x="780.56" y="-86.9" font-family="Helvetica,sans-Serif" font-size="8.00">)</text>
<polyline fill="none" stroke="black" points="920.56,-81.5 920.56,-116.5"/>
<text xml:space="preserve" text-anchor="start" x="928.56" y="-104.9" font-family="Helvetica,sans-Serif" font-size="8.00">!PredPk( ~p,</text>
<text xml:space="preserve" text-anchor="start" x="928.56" y="-95.9" font-family="Helvetica,sans-Serif" font-size="8.00">         pk(~hsk)</text>
<text xml:space="preserve" text-anchor="start" x="928.56" y="-86.9" font-family="Helvetica,sans-Serif" font-size="8.00">)</text>
<polyline fill="none" stroke="black" points="987.56,-81.5 987.56,-116.5"/>
<text xml:space="preserve" text-anchor="start" x="995.56" y="-104.9" font-family="Helvetica,sans-Serif" font-size="8.00">!AgentKey( $agentId,</text>
<text xml:space="preserve" text-anchor="start" x="995.56" y="-95.9" font-family="Helvetica,sans-Serif" font-size="8.00">           ~sk</text>
<text xml:space="preserve" text-anchor="start" x="995.56" y="-86.9" font-family="Helvetica,sans-Serif" font-size="8.00">)</text>
<polyline fill="none" stroke="black" points="1079.31,-81.5 1079.31,-116.5"/>
<text xml:space="preserve" text-anchor="start" x="1087.31" y="-100.4" font-family="Helvetica,sans-Serif" font-size="8.00">!DelegatedH( $H, ~p</text>
<text xml:space="preserve" text-anchor="start" x="1087.31" y="-91.4" font-family="Helvetica,sans-Serif" font-size="8.00">)</text>
<polyline fill="none" stroke="black" points="772.56,-81.5 1169.56,-81.5"/>
<text xml:space="preserve" text-anchor="start" x="780.56" y="-69.9" font-family="Helvetica,sans-Serif" font-size="8.00">#s : Settle_ModeB_naive[Eq( true, true ),</text>
<text xml:space="preserve" text-anchor="start" x="780.56" y="-60.9" font-family="Helvetica,sans-Serif" font-size="8.00">                        SettledB( $H, $agentId, pk(~sk), payee, asset, val, cid, ~p )]</text>
</g>
<!-- n32 -->
<g id="node13" class="node">
<title>n32</title>
<text xml:space="preserve" text-anchor="start" x="928.56" y="-21.25" font-family="Helvetica,sans-Serif" font-size="8.00" fill="#000000">H1</text>
<text xml:space="preserve" text-anchor="start" x="945.56" y="-21.25" font-family="Helvetica,sans-Serif" font-size="8.00">=</text>
<text xml:space="preserve" text-anchor="start" x="955.06" y="-21.25" font-family="Helvetica,sans-Serif" font-size="8.00">h(&lt;&#39;PRED&#39;, ~p&gt;)</text>
<text xml:space="preserve" text-anchor="start" x="928.56" y="-7.25" font-family="Helvetica,sans-Serif" font-size="8.00" fill="#000000">SI1</text>
<text xml:space="preserve" text-anchor="start" x="945.56" y="-7.25" font-family="Helvetica,sans-Serif" font-size="8.00">=</text>
<text xml:space="preserve" text-anchor="start" x="955.06" y="-7.25" font-family="Helvetica,sans-Serif" font-size="8.00">sign(H1, ~hsk)</text>
<polygon fill="none" stroke="black" points="923.56,0 923.56,-33 1018.56,-33 1018.56,0 923.56,0"/>
</g>
<!-- n5&#45;&gt;n32 -->
<!-- n6 -->
<g id="node2" class="node">
<title>n6</title>
<ellipse fill="none" stroke="black" cx="548.06" cy="-165" rx="36.77" ry="12.02"/>
<text xml:space="preserve" text-anchor="middle" x="548.06" y="-161.9" font-family="Helvetica,sans-Serif" font-size="8.00">#vf : isend</text>
</g>
<!-- n6&#45;&gt;n5 -->
<g id="edge1" class="edge">
<title>n6&#45;&gt;n5:n0</title>
<path fill="none" stroke="#4d4d4d" d="M567.24,-154.41C603.45,-137.18 685.03,-102.46 760.48,-99.24"/>
<polygon fill="#4d4d4d" stroke="#4d4d4d" points="760.12,-102.75 770.05,-99.03 759.97,-95.75 760.12,-102.75"/>
</g>
<!-- n7 -->
<g id="node3" class="node">
<title>n7</title>
<ellipse fill="none" stroke="black" cx="68.06" cy="-225.02" rx="68.06" ry="12.02"/>
<text xml:space="preserve" text-anchor="middle" x="68.06" y="-221.92" font-family="Helvetica,sans-Serif" font-size="8.00">#vk : coerce[!KU( ~p )]</text>
</g>
<!-- n7&#45;&gt;n6 -->
<g id="edge9" class="edge">
<title>n7&#45;&gt;n6</title>
<path fill="none" stroke="red" stroke-dasharray="5,2" d="M119.03,-216.74C128.35,-215.46 137.99,-214.16 147.06,-213 275.75,-196.48 427.98,-179.28 502.43,-171.02"/>
<polygon fill="red" stroke="red" points="502.64,-174.52 512.19,-169.94 501.87,-167.56 502.64,-174.52"/>
</g>
<!-- n8 -->
<g id="node4" class="node">
<title>n8</title>
<ellipse fill="none" stroke="black" cx="233.06" cy="-271.06" rx="34.65" ry="12.02"/>
<text xml:space="preserve" text-anchor="middle" x="233.06" y="-267.96" font-family="Helvetica,sans-Serif" font-size="8.00">#vl : irecv</text>
</g>
<!-- n8&#45;&gt;n7 -->
<g id="edge2" class="edge">
<title>n8&#45;&gt;n7</title>
<path fill="none" stroke="#ee4000" d="M206.55,-262.99C181.91,-256.41 144.66,-246.47 115,-238.55"/>
<polygon fill="#ee4000" stroke="#ee4000" points="116.07,-235.21 105.5,-236.02 114.26,-241.98 116.07,-235.21"/>
</g>
<!-- n16 -->
<g id="node6" class="node">
<title>n16</title>
<ellipse fill="none" stroke="black" cx="233.06" cy="-225.02" rx="74.95" ry="12.02"/>
<text xml:space="preserve" text-anchor="middle" x="233.06" y="-221.92" font-family="Helvetica,sans-Serif" font-size="8.00">#vk.1 : coerce[!KU( SI1 )]</text>
</g>
<!-- n8&#45;&gt;n16 -->
<g id="edge3" class="edge">
<title>n8&#45;&gt;n16</title>
<path fill="none" stroke="#ee4000" d="M233.06,-258.95C233.06,-255.74 233.06,-252.12 233.06,-248.48"/>
<polygon fill="#ee4000" stroke="#ee4000" points="236.56,-248.8 233.06,-238.8 229.56,-248.8 236.56,-248.8"/>
</g>
<!-- n15 -->
<g id="node5" class="node">
<title>n15</title>
<polygon fill="#bfda99" stroke="black" points="783.93,-305.58 783.93,-365.58 1102.18,-365.58 1102.18,-305.58 783.93,-305.58"/>
<text xml:space="preserve" text-anchor="middle" x="876.18" y="-353.98" font-family="Helvetica,sans-Serif" font-size="8.00">!HumanSk( $H, ~hsk )</text>
<polyline fill="none" stroke="black" points="968.43,-348.58 968.43,-365.58"/>
<text xml:space="preserve" text-anchor="middle" x="1035.31" y="-353.98" font-family="Helvetica,sans-Serif" font-size="8.00">Fr( ~p )</text>
<polyline fill="none" stroke="black" points="783.93,-348.58 1102.18,-348.58"/>
<text xml:space="preserve" text-anchor="start" x="791.93" y="-336.98" font-family="Helvetica,sans-Serif" font-size="8.00">#vr : Authorize_ModeB[DelegatedB( $H, ~p ),</text>
<text xml:space="preserve" text-anchor="start" x="791.93" y="-327.98" font-family="Helvetica,sans-Serif" font-size="8.00">                      AdmitB( $H, ~p, $okAgent, $okPayee, $okAsset, $okValue, $okChain )]</text>
<polyline fill="none" stroke="black" points="783.93,-322.58 1102.18,-322.58"/>
<text xml:space="preserve" text-anchor="middle" x="828.81" y="-310.98" font-family="Helvetica,sans-Serif" font-size="8.00">Out( &lt;~p, SI1&gt; )</text>
<polyline fill="none" stroke="black" points="873.68,-305.58 873.68,-322.58"/>
<text xml:space="preserve" text-anchor="middle" x="931.81" y="-310.98" font-family="Helvetica,sans-Serif" font-size="8.00">!PredPk( ~p, pk(~hsk) )</text>
<polyline fill="none" stroke="black" points="989.93,-305.58 989.93,-322.58"/>
<text xml:space="preserve" text-anchor="middle" x="1045.68" y="-310.98" font-family="Helvetica,sans-Serif" font-size="8.00">!DelegatedH( $H, ~p )</text>
</g>
<!-- n15&#45;&gt;n5 -->
<g id="edge5" class="edge">
<title>n15:n13&#45;&gt;n5:n1</title>
<path fill="none" stroke="#7f7f7f" stroke-width="2" d="M931.81,-305.08C931.81,-224.85 952.02,-203.17 953.92,-128.43"/>
<polygon fill="#7f7f7f" stroke="#7f7f7f" stroke-width="2" points="957.4,-130.07 954.02,-120.03 950.4,-129.98 957.4,-130.07"/>
</g>
<!-- n15&#45;&gt;n5 -->
<g id="edge6" class="edge">
<title>n15:n14&#45;&gt;n5:n3</title>
<path fill="none" stroke="#7f7f7f" stroke-width="2" d="M1102.43,-314.08C1198.69,-314.08 1265.33,-115.88 1181.8,-100.01"/>
<polygon fill="#7f7f7f" stroke="#7f7f7f" stroke-width="2" points="1183.85,-96.68 1173.57,-99.27 1183.22,-103.65 1183.85,-96.68"/>
</g>
<!-- n15&#45;&gt;n8 -->
<g id="edge4" class="edge">
<title>n15:n12&#45;&gt;n8</title>
<path fill="none" stroke="#4d4d4d" d="M782.93,-314.08C593.76,-314.08 369.03,-289.05 276.33,-277.63"/>
<polygon fill="#4d4d4d" stroke="#4d4d4d" points="276.77,-274.16 266.42,-276.39 275.91,-281.1 276.77,-274.16"/>
</g>
<!-- n16&#45;&gt;n6 -->
<g id="edge10" class="edge">
<title>n16&#45;&gt;n6</title>
<path fill="none" stroke="red" stroke-dasharray="5,2" d="M280.22,-215.33C341.36,-204.07 447.09,-184.6 505.76,-173.79"/>
<polygon fill="red" stroke="red" points="506.15,-177.28 515.35,-172.03 504.88,-170.39 506.15,-177.28"/>
</g>
<!-- n22 -->
<g id="node7" class="node">
<title>n22</title>
<polygon fill="#b4db99" stroke="black" points="828.43,-388.58 828.43,-439.58 1103.68,-439.58 1103.68,-388.58 828.43,-388.58"/>
<text xml:space="preserve" text-anchor="middle" x="966.06" y="-427.98" font-family="Helvetica,sans-Serif" font-size="8.00">Fr( ~hsk )</text>
<polyline fill="none" stroke="black" points="828.43,-422.58 1103.68,-422.58"/>
<text xml:space="preserve" text-anchor="middle" x="965.81" y="-410.98" font-family="Helvetica,sans-Serif" font-size="8.00">#vr.1 : Register_Human</text>
<polyline fill="none" stroke="black" points="828.43,-405.58 1103.68,-405.58"/>
<text xml:space="preserve" text-anchor="middle" x="876.18" y="-393.98" font-family="Helvetica,sans-Serif" font-size="8.00">!HumanSk( $H, ~hsk )</text>
<polyline fill="none" stroke="black" points="923.93,-388.58 923.93,-405.58"/>
<text xml:space="preserve" text-anchor="middle" x="978.81" y="-393.98" font-family="Helvetica,sans-Serif" font-size="8.00">!HumanPk( $H, pk(~hsk) )</text>
<polyline fill="none" stroke="black" points="1033.68,-388.58 1033.68,-405.58"/>
<text xml:space="preserve" text-anchor="middle" x="1068.68" y="-393.98" font-family="Helvetica,sans-Serif" font-size="8.00">Out( pk(~hsk) )</text>
</g>
<!-- n22&#45;&gt;n15 -->
<g id="edge7" class="edge">
<title>n22:n19&#45;&gt;n15:n9</title>
<path fill="none" stroke="#7f7f7f" stroke-width="2" d="M876.18,-388.08C876.18,-383.35 876.18,-380.33 876.18,-377.37"/>
<polygon fill="#7f7f7f" stroke="#7f7f7f" stroke-width="2" points="879.68,-379.11 876.18,-369.11 872.68,-379.11 879.68,-379.11"/>
</g>
<!-- n27 -->
<g id="node8" class="node">
<title>n27</title>
<polygon fill="#a9dc9a" stroke="black" points="965.81,-139.5 965.81,-190.5 1190.31,-190.5 1190.31,-139.5 965.81,-139.5"/>
<text xml:space="preserve" text-anchor="middle" x="1077.68" y="-178.9" font-family="Helvetica,sans-Serif" font-size="8.00">Fr( ~sk )</text>
<polyline fill="none" stroke="black" points="965.81,-173.5 1190.31,-173.5"/>
<text xml:space="preserve" text-anchor="middle" x="1078.06" y="-161.9" font-family="Helvetica,sans-Serif" font-size="8.00">#vr.2 : Register_Agent[KeyAuthorized( $agentId, pk(~sk) )]</text>
<polyline fill="none" stroke="black" points="965.81,-156.5 1190.31,-156.5"/>
<text xml:space="preserve" text-anchor="middle" x="1032.93" y="-144.9" font-family="Helvetica,sans-Serif" font-size="8.00">!AgentKey( $agentId, ~sk )</text>
<polyline fill="none" stroke="black" points="1100.06,-139.5 1100.06,-156.5"/>
<text xml:space="preserve" text-anchor="middle" x="1144.81" y="-144.9" font-family="Helvetica,sans-Serif" font-size="8.00">Out( pk(~sk) )</text>
</g>
<!-- n27&#45;&gt;n5 -->
<g id="edge8" class="edge">
<title>n27:n25&#45;&gt;n5:n2</title>
<path fill="none" stroke="#7f7f7f" stroke-width="2" d="M964.81,-148C960.78,-148 963.27,-142.12 965.81,-139 982.49,-118.51 1018.54,-138.99 1029.92,-127.8"/>
<polygon fill="#7f7f7f" stroke="#7f7f7f" stroke-width="2" points="1032.73,-130.47 1032.5,-119.88 1026.07,-128.3 1032.73,-130.47"/>
</g>
<!-- n28 -->
<g id="node9" class="node">
<title>n28</title>
<ellipse fill="none" stroke="gray" cx="396.06" cy="-225.02" rx="65.94" ry="12.02"/>
<text xml:space="preserve" text-anchor="middle" x="396.06" y="-221.92" font-family="Helvetica,sans-Serif" font-size="8.00">!KU( payee ) @ #vk.7</text>
</g>
<!-- n28&#45;&gt;n6 -->
<g id="edge11" class="edge">
<title>n28&#45;&gt;n6</title>
<path fill="none" stroke="red" stroke-dasharray="5,2" d="M423.23,-213.65C448.75,-203.91 487,-189.31 514.43,-178.84"/>
<polygon fill="red" stroke="red" points="515.58,-182.14 523.68,-175.31 513.09,-175.6 515.58,-182.14"/>
</g>
<!-- n29 -->
<g id="node10" class="node">
<title>n29</title>
<ellipse fill="none" stroke="gray" cx="548.06" cy="-225.02" rx="63.82" ry="12.02"/>
<text xml:space="preserve" text-anchor="middle" x="548.06" y="-221.92" font-family="Helvetica,sans-Serif" font-size="8.00">!KU( asset ) @ #vk.9</text>
</g>
<!-- n29&#45;&gt;n6 -->
<g id="edge12" class="edge">
<title>n29&#45;&gt;n6</title>
<path fill="none" stroke="red" stroke-dasharray="5,2" d="M548.06,-212.56C548.06,-205.8 548.06,-197.02 548.06,-188.9"/>
<polygon fill="red" stroke="red" points="551.56,-188.95 548.06,-178.95 544.56,-188.95 551.56,-188.95"/>
</g>
<!-- n30 -->
<g id="node11" class="node">
<title>n30</title>
<ellipse fill="none" stroke="gray" cx="694.06" cy="-225.02" rx="60.63" ry="12.02"/>
<text xml:space="preserve" text-anchor="middle" x="694.06" y="-221.92" font-family="Helvetica,sans-Serif" font-size="8.00">!KU( val ) @ #vk.11</text>
</g>
<!-- n30&#45;&gt;n6 -->
<g id="edge13" class="edge">
<title>n30&#45;&gt;n6</title>
<path fill="none" stroke="red" stroke-dasharray="5,2" d="M668.29,-213.78C643.94,-204.1 607.29,-189.54 580.86,-179.04"/>
<polygon fill="red" stroke="red" points="582.22,-175.81 571.63,-175.37 579.63,-182.31 582.22,-175.81"/>
</g>
<!-- n31 -->
<g id="node12" class="node">
<title>n31</title>
<ellipse fill="none" stroke="gray" cx="837.06" cy="-225.02" rx="60.63" ry="12.02"/>
<text xml:space="preserve" text-anchor="middle" x="837.06" y="-221.92" font-family="Helvetica,sans-Serif" font-size="8.00">!KU( cid ) @ #vk.12</text>
</g>
<!-- n31&#45;&gt;n6 -->
<g id="edge14" class="edge">
<title>n31&#45;&gt;n6</title>
<path fill="none" stroke="red" stroke-dasharray="5,2" d="M795.96,-215.77C741.11,-204.76 644.52,-185.37 589.5,-174.32"/>
<polygon fill="red" stroke="red" points="590.4,-170.93 579.91,-172.39 589.02,-177.79 590.4,-170.93"/>
</g>
</g>
</svg>
